<?xml version="1.0" encoding="UTF-8" standalone="no"?>
<!-- Created with Inkscape (http://www.inkscape.org/) -->

<svg
   xmlns:dc="http://purl.org/dc/elements/1.1/"
   xmlns:cc="http://creativecommons.org/ns#"
   xmlns:rdf="http://www.w3.org/1999/02/22-rdf-syntax-ns#"
   xmlns:svg="http://www.w3.org/2000/svg"
   xmlns="http://www.w3.org/2000/svg"
   xmlns:sodipodi="http://sodipodi.sourceforge.net/DTD/sodipodi-0.dtd"
   xmlns:inkscape="http://www.inkscape.org/namespaces/inkscape"
   width="64"
   height="64"
   id="svg2"
   version="1.1"
   inkscape:version="0.48.4 r9939"
   sodipodi:docname="saliency-marker.svg">
  <defs
     id="defs4" />
  <sodipodi:namedview
     id="base"
     pagecolor="#ffffff"
     bordercolor="#666666"
     borderopacity="1.0"
     inkscape:pageopacity="0.0"
     inkscape:pageshadow="2"
     inkscape:zoom="5.6"
     inkscape:cx="88.691004"
     inkscape:cy="19.417899"
     inkscape:document-units="px"
     inkscape:current-layer="layer1"
     showgrid="false"
     fit-margin-top="0"
     fit-margin-left="0"
     fit-margin-right="0"
     fit-margin-bottom="0"
     inkscape:window-width="1871"
     inkscape:window-height="1056"
     inkscape:window-x="49"
     inkscape:window-y="24"
     inkscape:window-maximized="1" />
  <metadata
     id="metadata7">
    <rdf:RDF>
      <cc:Work
         rdf:about="">
        <dc:format>image/svg+xml</dc:format>
        <dc:type
           rdf:resource="http://purl.org/dc/dcmitype/StillImage" />
        <dc:title />
      </cc:Work>
    </rdf:RDF>
  </metadata>
  <g
     inkscape:label="Layer 1"
     inkscape:groupmode="layer"
     id="layer1"
     transform="translate(-40,-605.50507)">
    <rect
       style="fill:#241c1c"
       id="rect2985"
       width="64"
       height="64"
       x="40"
       y="605.50507"
       rx="10"
       ry="10" />
    <path
       style="fill:#241c1c"
       id="path2989"
       d="m 71.769246,620.06565 c -1.076752,1.54885 -2.131038,3.11166 -3.135423,4.70859 -0.774492,1.2141 -1.415504,2.47448 -1.730655,3.88255 -0.197823,1.10281 -0.193294,2.22795 -0.191681,3.34444 -0.02841,1.21211 -0.04862,2.22243 0.358726,3.37918 0.279102,0.81733 0.684382,1.49123 1.455367,1.9032 0.720979,0.26686 1.466015,0.47971 2.225344,0.60574 0.885688,0.14065 1.731293,0.0694 2.58366,-0.19379 1.393319,-0.6008 1.662633,-0.73472 -2.696764,1.56457 -0.178526,0.0942 0.331913,-0.23042 0.488539,-0.35772 0.486,-0.39501 0.879217,-0.8644 1.276697,-1.34408 0.611911,-0.6983 1.117513,-1.46637 1.599246,-2.25608 0.390674,-0.62461 0.885647,-1.17184 1.293028,-1.78477 0,0 3.869529,-1.71918 3.869529,-1.71918 l 0,0 c -0.343777,0.66016 -0.86149,1.19099 -1.289218,1.79601 -0.509461,0.79294 -0.962534,1.6186 -1.608966,2.31626 -1.681139,2.11977 -3.420696,3.45658 -6.278769,4.35043 -0.900128,0.19747 -1.802399,0.22541 -2.712238,0.0547 -0.785403,-0.16837 -1.571139,-0.38659 -2.296489,-0.7355 -0.839624,-0.54344 -1.274892,-1.21557 -1.593783,-2.16115 -0.432513,-1.21099 -0.463606,-2.23424 -0.422007,-3.50818 0.0024,-1.14217 -0.02363,-2.29167 0.15427,-3.42378 0.08848,-0.44085 0.14395,-0.7818 0.285898,-1.21329 0.333313,-1.0132 0.910591,-1.91103 1.440073,-2.82778 0.979944,-1.57946 2.021796,-3.11788 3.045363,-4.66897 0,0 3.880253,-1.71136 3.880253,-1.71136 z"
       inkscape:connector-curvature="0" />
    <path
       style="fill:#241c1c"
       id="path2991"
       d="m 80.939128,619.76108 c -0.961686,1.70812 -1.614864,3.55346 -2.250471,5.39997 -0.900294,2.74985 -1.771212,5.51058 -2.503263,8.31043 -0.484565,2.10281 -0.899605,4.22114 -1.317935,6.33813 -0.177343,1.02166 -0.09934,0.52561 -0.236878,1.4877 0,0 -3.757515,1.84623 -3.757515,1.84623 l 0,0 c 0.147305,-0.98298 0.06566,-0.4765 0.247186,-1.5191 0.452045,-2.12992 0.872727,-4.26545 1.366793,-6.38589 0.729959,-2.80678 1.632682,-5.56287 2.48503,-8.33413 0.609747,-1.83317 1.21578,-3.67041 2.101103,-5.39427 0,0 3.86595,-1.74907 3.86595,-1.74907 z"
       inkscape:connector-curvature="0" />
    <path
       style="fill:#ffffff"
       id="path3075"
       d="m 56.173844,619.17049 c -0.02721,1.36885 -0.02688,2.73815 -0.02637,4.10723 -0.0036,1.38248 0.0056,2.76495 0.01131,4.14741 -9.81e-4,1.07438 0.0079,2.1487 0.0027,3.22308 -0.0036,1.00996 0.0013,2.01993 0.0077,3.02987 0.0017,0.76012 0.0028,1.52023 0.0032,2.28035 0.0015,1.04192 -0.153164,1.26511 0.865101,1.77554 1.200786,0.45403 2.469523,0.63968 3.74081,0.75296 1.267649,0.0833 2.539094,0.0802 3.808895,0.0815 1.29615,-0.004 2.592311,-0.008 3.888468,-0.009 0.979465,-0.0438 1.970657,0.0638 2.944683,-0.0601 0.726285,-0.11869 1.4596,-0.18609 2.194556,-0.2158 0.585974,-0.19656 1.477193,-0.0497 2.022821,-0.29334 0.115919,-0.0518 0.203075,-0.1524 0.304612,-0.22859 -6.700953,3.67501 -3.527423,2.63197 -2.949051,1.34585 0.143293,-0.31864 0.186247,-0.66539 0.232067,-1.00728 0.06481,-0.72306 0.04923,-1.45052 0.04397,-2.17565 -0.005,-0.70554 0.01251,-1.40787 -0.08091,-2.1083 -0.1095,-0.7217 -0.1657,-1.4484 -0.195838,-2.17715 -0.07127,-0.65 -0.189092,-1.2928 -0.253187,-1.94389 -0.06047,-0.65654 -0.03236,-1.31674 -0.0811,-1.97363 -0.105514,-0.71292 -0.179807,-1.42804 -0.223136,-2.1473 -0.03369,-0.71529 -0.03847,-1.43179 -0.0378,-2.14778 -0.0022,-0.71679 0.0011,-1.43357 6.54e-4,-2.15036 0.0239,-0.9353 0.02439,-1.36031 -0.84517,-1.84737 -1.032291,-0.38218 -2.115658,-0.53522 -3.205736,-0.62989 -0.922397,-0.063 -1.847539,-0.0621 -2.771596,-0.0596 -0.877186,-7.8e-4 -1.75436,0.005 -2.631539,0.008 -0.816881,-0.003 -1.621971,-0.0426 -2.421097,0.14676 -0.747504,0.20343 -1.509948,0.32283 -2.263861,0.49582 -0.62845,0.14574 -1.271678,0.19134 -1.91435,0.21423 -0.752729,-0.0168 -1.495591,0.1187 -2.242968,0.19463 -0.386895,0.0571 -0.787228,-0.0116 -1.150824,0.16825 -0.112413,0.0556 -0.415412,0.28002 -0.305483,0.21965 3.360843,-1.84574 4.177077,-2.87039 3.105179,-1.60954 -0.442066,1.31166 -0.226251,2.75013 -0.117307,4.10321 0.117775,1.28342 0.189218,2.56994 0.224067,3.85809 0.02548,1.01122 0.02421,2.02292 0.02438,3.0344 0.0013,0.95316 -8.18e-4,1.90633 -0.0016,2.85949 -0.04203,0.82576 0.0672,1.64152 0.167397,2.45837 0.0345,0.80924 0.237937,1.58177 0.537013,2.33111 0.619479,0.93802 1.692457,0.83811 2.683729,0.77298 1.562156,-0.0319 3.019997,-0.6187 4.525333,-0.96234 1.632787,-0.35165 3.287707,-0.55276 4.951775,-0.67256 1.122787,-0.074 2.248192,-0.0996 3.3732,-0.10328 0.826344,2e-4 1.652672,0.004 2.479023,0.004 0.305701,7.7e-4 0.470065,0.0355 0.75627,-0.0969 0.110847,-0.0513 0.408187,-0.26735 0.300667,-0.20942 -1.118468,0.60269 -2.188049,1.29901 -3.33541,1.84469 -0.132017,0.0628 0.174016,-0.23741 0.235129,-0.37021 0.07507,-0.16313 0.113605,-0.34071 0.170408,-0.51106 0.299087,-1.4956 0.279264,-3.03303 0.284988,-4.55194 0.02833,-1.14142 -0.05075,-2.27878 -0.216256,-3.40754 -0.155564,-1.13308 -0.289261,-2.26701 -0.464708,-3.39747 -0.10929,-0.83201 -0.07548,-1.7159 -0.569099,-2.43042 -0.570442,-0.35647 -1.244708,-0.52801 -1.864567,-0.79167 -0.707905,-0.28925 -1.46686,-0.41196 -2.200203,-0.62094 -0.872897,-0.20301 -1.743928,-0.40267 -2.614002,-0.61844 -0.812989,-0.15017 -1.618472,-0.32655 -2.428722,-0.48997 -0.635274,-0.12064 -1.283528,-0.1316 -1.927952,-0.14264 -0.708911,-0.008 -1.417905,-0.005 -2.126849,-0.004 -0.710149,0.002 -1.420299,0.002 -2.130451,0.003 -0.771747,-0.029 -1.374318,-0.0547 -2.052919,0.35066 6.526041,-3.53201 3.577393,-2.44074 2.721741,-1.3165 -0.26416,0.34708 -0.415735,0.75266 -0.571972,1.15447 -0.269093,0.77866 -0.345112,1.59962 -0.38339,2.41685 -0.02164,0.71726 -0.01667,1.43494 -0.01208,2.1524 0.0018,0.71874 0.0033,1.43748 0.0039,2.15622 -0.0067,0.81049 -4.2e-5,1.62098 -0.0015,2.43147 0.0029,0.73712 9.81e-4,1.47423 0.0023,2.21135 -0.0013,0.79436 -0.004,1.58872 -0.0033,2.38308 0.0019,0.81646 6.54e-4,1.63292 -9.81e-4,2.44939 0.0026,0.19512 -0.04056,1.63643 0.112946,1.66497 0.04872,0.009 0.05322,-0.0836 0.07984,-0.1254 -5.3855,3.00641 -3.647142,2.53375 -2.866798,0.73421 0.330318,-0.76174 0.578396,-1.55736 0.828252,-2.34776 0.45929,-1.26873 0.630207,-2.61003 0.96143,-3.91088 0.31814,-0.82441 0.593843,-1.64827 0.727705,-2.52305 0.156776,-0.85516 0.269838,-1.71595 0.337957,-2.58245 0.04841,-0.79233 0.05378,-1.58642 0.0541,-2.37996 9.81e-4,-0.77188 -0.0021,-1.54375 -0.0035,-2.31563 -0.0097,-1.01149 0.176464,-1.33216 -0.61315,-2.09365 -0.109412,-0.092 -0.215402,-0.1882 -0.328236,-0.27596 -0.127873,-0.0994 -0.350395,-0.25111 -0.383056,-0.22425 -0.03901,0.0321 -0.0289,0.1751 0.01535,0.15075 3.683394,-2.02631 3.450673,-3.53837 3.627235,-1.92097 0.219303,0.83098 0.527292,1.63001 0.690821,2.47599 0.160023,0.99313 0.173185,2.00237 0.183106,3.00596 0.0051,0.92398 0.01091,1.84801 0.0086,2.77201 0.03144,0.72069 -0.01032,1.43057 -0.115123,2.14289 -0.181059,0.81798 -0.393811,1.63738 -0.684838,2.42412 -0.300168,0.62974 -0.481131,1.28648 -0.568858,1.97572 -0.06957,0.68775 -0.149258,1.26723 0.35947,1.79836 0.56048,0.39863 1.273069,0.37847 1.932506,0.40146 0.471673,0.003 0.944351,0.0375 1.413172,-0.0368 1.351645,-0.21424 4.214612,-2.16079 -2.519758,1.60184 0.680947,-0.51775 0.664944,-1.41667 0.708243,-2.19746 0.06462,-1.07474 0.0022,-2.14345 -0.114042,-3.21149 -0.100993,-0.78282 -0.145946,-1.57062 -0.172906,-2.35895 -0.06022,-0.74372 0.06224,-1.47611 0.150516,-2.21125 0.108529,-1.00106 0.24949,-1.99713 0.328893,-3.00141 0.05427,-0.84153 0.113695,-1.68444 0.01149,-2.52361 -0.118748,-0.46513 -0.334869,-1.27907 -0.90256,-1.33958 -0.978906,1.20285 0.04952,-0.10372 3.316109,-1.72976 0.09656,-0.0481 -0.129527,0.17351 -0.180464,0.26859 -0.198359,0.37024 -0.306932,0.78461 -0.419236,1.18605 -0.164058,0.7396 -0.247291,1.49374 -0.370282,2.24118 -0.135664,0.86804 -0.519737,1.66304 -0.760632,2.50236 -0.257958,0.8224 -0.388256,1.67141 -0.524691,2.51934 -0.174086,0.96458 -0.249849,1.94176 -0.291246,2.91978 -0.101382,0.81638 -0.340277,1.60544 -0.47877,2.41556 -0.09485,0.60763 -0.108707,1.22343 -0.117446,1.83711 0.03775,0.6799 0.19048,1.3966 0.621451,1.93833 0.05426,0.0346 0.101027,0.12189 0.162789,0.1038 0.05829,-0.0171 0.118671,-0.19795 0.06455,-0.17038 -1.187869,0.60504 -2.312556,1.33013 -3.506326,1.92344 -0.09702,0.0482 0.133622,-0.17266 0.180354,-0.27041 0.07072,-0.14791 0.215873,-0.66898 0.258014,-0.81295 0.300433,-0.82733 0.257669,-1.72743 0.522932,-2.55889 0.779507,-1.45797 0.352586,-0.7581 4.046631,-2.08606 0.141442,-0.0508 0.180717,0.24127 0.254599,0.37216 0.24461,0.43335 0.412204,0.92686 0.59051,1.38961 0.156357,0.35722 0.251873,0.78494 0.58725,1.02786 0.06351,0.046 0.136744,0.0952 0.215167,0.0952 0.06866,-10e-6 0.243179,-0.1276 0.18265,-0.0952 -1.134148,0.60717 -2.269014,1.21299 -3.40352,1.81949 0.909896,-0.82485 1.276913,-2.06131 1.645668,-3.19562 0.356127,-1.14894 0.707174,-2.29852 1.093358,-3.43777 0.223603,-0.83643 0.53064,-1.64237 0.877634,-2.43425 0.464064,-0.91281 0.773229,-1.88539 1.098961,-2.85184 0.333107,-0.95813 0.662626,-1.91391 0.866639,-2.90885 0.08087,-0.59969 0.228963,-1.23036 0.06764,-1.82667 -0.188719,-0.30647 -0.695433,-0.43469 -1.045042,-0.40438 -0.103694,0.009 -0.200493,0.056 -0.300739,0.084 -1.29246,0.65623 -3.344988,1.5732 2.616384,-1.49321 0.129005,-0.0664 -0.214655,0.19607 -0.310421,0.30504 -0.218325,0.24842 -0.304655,0.42531 -0.473468,0.71002 -0.430187,0.75657 -0.543152,1.59416 -0.610218,2.4457 -0.06335,1.40068 -0.05618,2.80354 -0.04777,4.20529 0.0022,1.10918 0.02024,2.21825 0.02443,3.3274 0.02364,0.80343 0.03099,1.5903 -0.138307,2.37821 -0.201228,0.78226 -0.302519,1.5838 -0.45504,2.3758 -0.158914,0.74979 -0.109592,1.44749 -0.532136,2.11339 -1.316824,0.72978 -2.579888,1.56636 -3.950477,2.18932 -0.146949,0.0668 -0.300977,-0.11818 -0.444736,-0.19159 -0.764472,-0.39036 -1.30343,-1.1125 -1.841238,-1.75843 -0.700136,-0.86281 -1.383973,-1.75083 -1.832892,-2.7728 -0.690241,-2.01036 0.633753,-1.62661 3.66335,-2.95098 0.04529,-0.0198 0.40739,0.39352 0.602414,0.60862 0.768028,0.8861 1.493397,1.81262 2.364515,2.60057 0.329448,0.22887 0.782743,0.80172 1.263098,0.72585 0.12011,-0.019 0.417389,-0.24913 0.309308,-0.19341 -3.481342,1.79487 -3.983328,2.79692 -2.921282,1.13791 0.961593,-2.0543 1.74102,-4.1861 2.409236,-6.35162 0.424768,-1.54545 0.882659,-3.08164 1.330049,-4.62072 0.616255,-2.35808 0.320774,-2.04004 4.325504,-2.90938 0.198222,-0.043 0.04354,0.40333 0.06531,0.605 0.08354,1.72797 0.05794,3.45958 0.05865,5.18915 -3.27e-4,1.34964 9.81e-4,2.69932 0.0082,4.04894 -0.0054,2.91993 0.622581,1.43661 -3.779529,3.51856 0.04297,-1.27534 0.03854,-2.55185 0.04129,-3.82777 -0.01557,-1.61582 0.311365,-3.1987 0.559351,-4.78698 0.135855,-1.20841 0.304691,-2.41328 0.43496,-3.6224 0.293082,-2.13977 0.886104,-1.74799 4.183214,-2.68347 0.156656,-0.0444 0.123772,0.30155 0.174569,0.45626 0.06244,0.19018 0.109883,0.38496 0.164823,0.57743 0.358068,1.42536 0.414808,2.89942 0.463852,4.3611 0.03004,1.40476 0.03622,2.80974 0.04533,4.21472 0.0028,0.84126 0.0084,1.68256 0.006,2.52382 0.0074,0.76033 0.02726,1.51498 -0.09961,2.26655 -0.260725,0.89334 -0.830699,1.60696 -1.591734,2.12293 -3.20687,1.97854 -3.462879,2.39842 -6.300759,2.48642 -0.866759,0.061 -1.56036,-0.0387 -2.275973,-0.55228 -0.618158,-0.541 -0.916245,-1.2362 -1.096537,-2.01774 -0.126068,-0.72657 -0.175752,-1.46804 -0.04238,-2.19515 0.09889,-0.27768 0.20471,-0.6584 0.483476,-0.82342 2.464907,-1.45917 2.701639,-2.09714 4.564866,-2.31768 0.912698,-0.13522 1.50559,0.13292 2.261462,0.61245 0.783328,0.56312 1.430199,1.30522 1.984411,2.09003 0.430397,0.65366 0.868836,1.18095 0.51519,1.96971 -1.330975,0.68008 -2.621292,1.44641 -3.992922,2.04024 -0.126348,0.0547 -0.258351,-0.0953 -0.387146,-0.14394 -0.545121,-0.20595 -1.082455,-0.43753 -1.609968,-0.68484 -0.795668,-0.2928 -1.412946,-0.94774 -2.270172,-1.07197 -1.117622,1.09457 0.495825,-0.50254 3.552106,-1.9501 0.08703,-0.0412 0.09092,0.17073 0.149347,0.24728 0.241376,0.31625 0.550993,0.52514 0.882404,0.73391 0.279156,0.0815 0.4343,0.17517 0.732447,0.0622 0.148324,-0.0562 0.540919,-0.33095 0.401421,-0.25547 -1.056678,0.57169 -2.070233,1.22584 -3.153868,1.74462 -0.205254,0.0983 0.338415,-0.30513 0.493976,-0.47122 0.16403,-0.17513 0.308902,-0.36727 0.463354,-0.55091 0.769099,-1.05984 1.257311,-2.28495 1.66549,-3.52038 0.243,-0.90069 0.528131,-1.78977 0.804532,-2.68081 0.282577,-0.79441 0.398124,-1.63879 0.788497,-2.39113 1.042556,-1.44748 3.687557,-3.73471 4.592463,-1.72847 0.163194,0.36182 0.195496,0.66743 0.270309,1.05726 0.165253,1.17076 0.191956,2.35486 0.214167,3.53523 0.0087,0.79545 0.0091,1.59106 0.0044,2.38655 0.04319,0.86766 -0.03275,1.42554 -0.755078,1.97112 0.09552,-0.0205 -3.4608,3.04156 -4.93163,2.0027 -0.236369,-0.16695 -0.249153,-0.25514 -0.393762,-0.50531 -0.578512,-1.9809 2.245744,-3.99643 4.148822,-3.48022 0.56341,0.4301 0.66701,1.096 0.741414,1.75725 0,0 -3.755959,1.96212 -3.755959,1.96212 l 0,0 c -0.02901,-0.3196 -0.01586,-1.12991 -0.423633,-1.20648 -1.167411,0.68766 -3.119065,1.83803 3.281085,-1.99095 0.0647,-0.0387 -0.133826,0.0767 -0.181304,0.13521 -0.159333,0.19653 -0.177096,0.46213 -0.131824,0.69774 0.08456,0.14395 0.0835,0.19802 0.244991,0.26396 1.174589,0.47959 5.439623,-3.0866 -2.553119,1.88326 0.86945,-0.36822 0.97665,-0.63742 0.936653,-1.56949 8.18e-4,-0.79636 0.01272,-1.59268 0.01331,-2.38906 -0.0017,-1.15918 -0.0122,-2.32295 -0.170892,-3.47329 -0.05823,-0.30901 -0.09322,-0.61468 -0.221351,-0.90508 -0.03262,-0.0739 -0.07069,-0.15208 -0.134417,-0.20178 -0.02911,-0.0227 -0.141742,0.0302 -0.110193,0.011 3.082257,-1.87234 4.658502,-2.60755 3.198696,-1.91854 -0.530987,0.65521 -0.572078,1.51789 -0.849789,2.29219 -0.279516,0.89437 -0.583107,1.78325 -0.813478,2.69066 -0.407666,1.27715 -0.917717,2.53217 -1.629167,3.6723 -1.592222,2.05232 -1.338709,1.52629 -4.965613,3.52857 -0.457105,0.25235 -0.964181,0.0768 -1.382712,-0.13617 -0.366221,-0.25927 -0.710949,-0.52101 -0.985005,-0.88299 -0.07829,-0.1034 -0.304204,-0.24371 -0.206932,-0.32949 3.092004,-2.72685 2.119504,-2.95698 3.668325,-2.50575 0.807921,0.2978 1.49951,0.81639 2.293272,1.1454 0.505474,0.22563 1.034129,0.49438 1.576655,0.61878 1.438385,0.32982 2.746409,-1.40433 -3.062938,2.0704 0.08295,0.002 0.173983,0.0416 0.248848,0.006 0.372917,-0.17818 -0.324042,-1.24434 -0.446807,-1.39848 -0.517925,-0.74228 -1.13825,-1.43371 -1.895269,-1.93828 -0.717946,-0.40778 -1.281666,-0.52877 -2.100778,-0.35481 -1.484819,0.35422 -2.848579,1.59196 2.771058,-1.79252 0.08266,-0.0498 -0.185799,0.0598 -0.266898,0.1121 -0.185547,0.11962 -0.234442,0.25209 -0.343781,0.43514 -0.206762,0.66064 -0.136881,1.34771 -0.04588,2.02641 0.134021,0.6802 0.364332,1.28775 0.925935,1.73417 0.659395,0.37827 1.376758,0.39173 2.121805,0.34046 0.437794,-0.0231 0.874581,-0.0477 1.306904,-0.1263 1.512939,-0.27488 3.449059,-1.66217 -2.356012,1.65315 0.253764,-0.12582 0.554354,-0.25462 0.772074,-0.44328 0.412841,-0.35776 0.701316,-0.87922 0.955953,-1.35107 0.173916,-0.72151 0.13443,-1.45089 0.132996,-2.18912 -3.27e-4,-0.84517 0.0094,-1.69034 0.01651,-2.53547 0.01367,-1.4053 0.02311,-2.81113 -0.01097,-4.21619 -0.04492,-1.42539 -0.09234,-2.86434 -0.439671,-4.25482 -0.0531,-0.17816 -0.09802,-0.35897 -0.159303,-0.53447 -0.04843,-0.13868 -0.286943,-0.31874 -0.169392,-0.40682 1.13321,-0.84915 2.419457,-1.47227 3.638539,-2.19273 0.05678,-0.0336 -0.113861,0.0744 -0.148833,0.13036 -0.148103,0.2368 -0.165935,0.49939 -0.216307,0.76656 -0.136553,1.21964 -0.327364,2.43209 -0.454473,3.65283 -0.242424,1.57333 -0.608497,3.13223 -0.596996,4.73392 0.0027,1.26188 -0.0023,2.52439 0.0411,3.78567 -4.43005,2.41878 -3.773599,3.26424 -3.775741,0.33013 0.01313,-1.3571 0.0251,-2.71421 0.03517,-4.07134 0.01063,-1.70942 0.03279,-3.42157 -0.07433,-5.12857 -0.218032,-1.97883 -0.214126,-0.44012 3.660912,-2.77321 0.0431,-0.0259 -0.104441,0.0307 -0.132325,0.0726 -0.238985,0.35887 -0.241853,0.86335 -0.393517,1.25327 -0.456619,1.55571 -0.978733,3.09248 -1.397502,4.65926 -0.667425,2.17449 -1.466448,4.29877 -2.320863,6.40674 -0.964531,2.0047 -0.288662,0.90207 -4.260427,3.14117 -0.129167,0.0728 -0.299843,0.0273 -0.444817,-0.004 -0.531693,-0.11417 -0.934281,-0.57 -1.33695,-0.89128 -0.864015,-0.80972 -1.604808,-1.73028 -2.401398,-2.60443 -0.09287,-0.0874 -0.174952,-0.1879 -0.278611,-0.26218 -0.0537,-0.0385 -0.240746,-0.0343 -0.18532,-0.0703 1.151468,-0.74692 2.377707,-1.37309 3.538766,-2.10502 0.04279,-0.027 -0.11861,-0.0733 -0.14824,-0.0323 -0.05533,0.0765 0.103583,0.53056 0.105672,0.5377 0.40176,0.99545 1.059082,1.85578 1.729035,2.68625 0.405053,0.47269 0.816397,1.00787 1.352658,1.34462 0.119292,0.0749 0.249693,0.13696 0.386293,0.17133 0.104641,0.0263 0.413096,-0.053 0.32363,0.007 -1.076435,0.7258 -2.220087,1.34657 -3.33013,2.01985 0.08624,-0.0517 0.189122,-0.0826 0.258712,-0.15524 0.413782,-0.4317 0.184367,-1.21608 0.383861,-1.73588 0.157791,-0.79632 0.26596,-1.60051 0.451288,-2.3915 0.02491,-0.0977 0.169448,-0.64774 0.181665,-0.75893 0.05545,-0.50473 -0.04299,-1.02735 0.0036,-1.53339 0.0013,-1.11494 0.01396,-2.22986 0.01048,-3.34482 0.0026,-1.40492 -0.01496,-2.81013 0.01125,-4.21484 0.03326,-0.89948 0.114943,-1.7897 0.521501,-2.61001 0.144085,-0.28671 0.254607,-0.53071 0.435639,-0.79663 1.10055,-1.61663 3.123774,-2.50635 4.98686,-2.98152 0.662244,0.0152 1.342596,0.17473 1.671807,0.81129 0.214013,0.66162 0.111851,1.34226 0.0085,2.01961 -0.19291,1.01746 -0.51657,1.99267 -0.85741,2.96874 -0.3415,0.96673 -0.601589,1.96329 -1.069173,2.88301 -0.368204,0.77145 -0.681241,1.56848 -0.901218,2.39555 -0.377633,1.14785 -0.79433,2.28299 -1.12939,3.44524 -0.355323,1.1929 -0.740372,2.40901 -1.489611,3.42117 -1.097607,0.6175 -3.595346,3.50569 -4.82526,1.61274 -0.136983,-0.21083 -0.288963,-0.62405 -0.379644,-0.84996 -0.171301,-0.45311 -0.167553,-0.46705 -0.370898,-0.9088 -0.05719,-0.12424 -0.108025,-0.25239 -0.179667,-0.36891 -0.04216,-0.0686 -0.226332,-0.13777 -0.158937,-0.18177 3.068348,-2.00331 4.958385,-2.23566 3.365054,-2.0177 -0.0578,0.0787 -0.138073,0.14504 -0.173386,0.23606 -0.246067,0.63427 -0.09188,1.61153 -0.396173,2.26386 -0.03077,0.10696 -0.305954,1.23344 -0.331902,1.25103 -1.734926,1.17609 -2.947538,3.26408 -4.291231,1.94946 -0.454422,-0.64042 -0.676277,-1.40238 -0.752816,-2.18071 0.0028,-0.63238 0.0032,-1.26671 0.08958,-1.89463 0.122574,-0.80468 0.344229,-1.58507 0.51728,-2.3794 0.04331,-0.99181 0.104541,-1.98253 0.263212,-2.96389 0.149378,-0.8557 0.238507,-1.72339 0.509096,-2.55484 0.203405,-0.84204 0.591577,-1.61404 0.76735,-2.46095 0.12467,-0.76098 0.235135,-1.52121 0.362202,-2.28118 0.498995,-2.03734 1.487018,-4.54652 4.634065,-3.90906 0.61066,0.38585 0.955814,1.03716 1.11621,1.73062 0.116292,0.86989 0.06856,1.73753 0.0067,2.61185 -0.07809,1.00483 -0.20445,2.003 -0.308234,3.00494 -0.06905,0.71954 -0.227924,1.43071 -0.169842,2.15695 0.01632,0.78147 0.05247,1.56241 0.139965,2.33959 0.108881,1.08736 0.196636,2.17332 0.140497,3.26761 -0.02678,0.86469 0.0013,1.81646 -0.530974,2.54516 -3.349149,1.93927 -3.310735,2.58535 -6.262035,2.45035 -0.770799,-0.0453 -1.544765,-0.11532 -2.133079,-0.6738 -0.574342,-0.6867 -0.614021,-1.24276 -0.52854,-2.10994 0.07027,-0.72282 0.19186,-1.42953 0.526439,-2.08424 0.331772,-0.74468 0.501309,-1.54408 0.722297,-2.32659 0.0938,-0.69814 0.202478,-1.38574 0.149005,-2.09479 0.0021,-0.92493 0.01579,-1.84984 0.0091,-2.7748 -0.01149,-0.97972 -0.01599,-1.9644 -0.157838,-2.93588 -0.154485,-0.84701 -0.44087,-1.65071 -0.717909,-2.46379 -0.40464,-1.65087 -0.186438,-0.40358 3.526123,-2.66868 0.01507,-0.009 0.850538,0.67745 0.89053,0.73927 0.826649,0.86376 0.832155,1.24057 0.789761,2.37258 3.27e-4,0.77282 3.27e-4,1.54565 9.81e-4,2.31848 -0.0031,0.8021 0.0041,1.60487 -0.04185,2.40602 -0.05453,0.87601 -0.167451,1.74723 -0.328347,2.61019 -0.114209,0.89555 -0.31567,1.76143 -0.714308,2.57887 -0.394483,1.29675 -0.525456,2.66231 -0.994262,3.94132 -0.248958,0.79896 -0.500792,1.59707 -0.793456,2.38144 -0.0035,0.009 -0.419799,1.1159 -0.512265,1.17741 -1.25809,0.83693 -2.617638,1.51028 -3.926457,2.26541 -0.0911,-0.067 -0.200602,-0.11429 -0.273288,-0.20089 -0.402046,-0.47901 -0.106361,-1.2943 -0.186464,-1.85106 -0.0015,-0.81616 -0.0028,-1.63232 -9.81e-4,-2.44848 6.54e-4,-0.79324 -0.0019,-1.58649 -0.0033,-2.37973 0.0013,-0.73792 -4.9e-4,-1.47584 0.0024,-2.21376 -0.0013,-0.80971 0.0054,-1.61942 -0.0024,-2.42912 -6.54e-4,-0.71789 -0.0016,-1.4358 -0.006,-2.15368 -0.0013,-0.72411 -0.0097,-1.44841 0.009,-2.17236 0.03066,-0.85507 0.09692,-1.71076 0.334826,-2.53752 0.926261,-2.73389 1.729117,-2.36283 4.989316,-4.25669 0.70662,-0.2481 1.426955,-0.22297 2.169199,-0.20803 0.709271,7.8e-4 1.41853,-10e-4 2.127799,-0.002 0.712613,-10e-4 1.425304,-0.004 2.137819,0.0105 0.661129,0.0231 1.324971,0.0555 1.971623,0.20709 0.804331,0.18006 1.614346,0.32834 2.417054,0.51538 0.874136,0.21729 1.759623,0.37916 2.628004,0.61952 0.753171,0.19291 1.523677,0.33978 2.236501,0.66091 0.69267,0.27565 1.466963,0.45917 2.004612,1.00224 0.503212,0.79068 0.563937,1.68793 0.637676,2.60371 0.157776,1.13184 0.300243,2.26479 0.461732,3.39583 0.18575,1.15047 0.259358,2.31608 0.219066,3.48126 -0.0127,1.54727 -0.0097,3.10253 -0.214131,4.63889 -0.01573,0.0716 -0.186729,0.97351 -0.302101,1.05639 -1.767427,1.2697 -3.02755,2.61486 -5.047979,2.58307 -0.823972,-0.004 -1.64794,-0.006 -2.471925,-0.005 -1.105692,0.006 -2.211922,0.0183 -3.315294,0.098 -1.65066,0.13134 -3.291832,0.3509 -4.907344,0.72241 -1.517134,0.38056 -3.012567,0.90274 -4.59563,0.91512 -1.236049,0.0288 -2.263625,-0.0648 -2.983556,-1.19655 -0.315186,-0.77718 -0.577148,-1.57919 -0.602115,-2.42384 -0.09285,-0.83467 -0.22817,-1.66657 -0.175997,-2.50953 2.4e-5,-0.95331 -4.91e-4,-1.90662 0.0026,-2.85992 8.18e-4,-1.01008 0.0027,-2.02017 -0.01063,-3.03019 -0.02556,-1.28543 -0.07633,-2.57024 -0.185118,-3.85167 -0.113699,-1.43559 -0.29241,-2.88639 -0.04728,-4.31887 0.919574,-2.02962 3.527862,-2.84962 5.616447,-3.00972 0.755136,-0.0822 1.50801,-0.18634 2.269329,-0.18483 0.627316,-0.0397 1.251205,-0.11558 1.862645,-0.26657 0.75344,-0.16595 1.513956,-0.2984 2.264709,-0.47745 0.819993,-0.11562 1.644887,-0.0887 2.471423,-0.0876 0.876296,-5.8e-4 1.752597,-0.001 2.62889,-0.004 0.929237,0.005 1.859805,0.008 2.785512,0.10094 1.134014,0.12954 2.277202,0.30363 3.323178,0.78563 0.888649,0.61315 1.12264,1.14167 1.069835,2.21038 -0.0016,0.71664 -3.27e-4,1.43327 -0.0021,2.14991 0.0033,0.70925 -8.18e-4,1.41877 0.02859,2.12761 0.03425,0.71363 0.09896,1.42431 0.214198,2.12991 0.08167,0.65498 0.03467,1.31615 0.08993,1.97413 0.05346,0.66026 0.15854,1.31266 0.255499,1.9676 0.02393,0.71513 0.06793,1.43006 0.178299,2.13784 0.104639,0.71767 0.115697,1.43391 0.103792,2.159 0.0061,0.74004 0.01962,1.48075 -0.01912,2.22021 -0.25529,2.72499 -1.216752,2.35803 -4.380515,4.19029 -0.783222,0.25911 -1.625301,0.27066 -2.439087,0.38172 -0.730212,0.0496 -1.455647,0.1373 -2.182285,0.22302 -0.978765,0.044 -1.959387,-2e-4 -2.938836,0.0121 -1.294489,0.003 -2.588993,0.006 -3.883485,0.004 -1.28107,-0.002 -2.564378,0.006 -3.841616,-0.10935 -1.309818,-0.14798 -2.627582,-0.36052 -3.845253,-0.88901 -1.07934,-0.6525 -1.148235,-0.95859 -1.111302,-2.15127 3.28e-4,-0.76121 0.0015,-1.5224 0.0032,-2.2836 0.0063,-1.01254 0.01125,-2.0251 0.0077,-3.03766 -0.0052,-1.07529 0.0036,-2.15051 0.0027,-3.2258 0.0057,-1.3863 0.01486,-2.7726 0.01131,-4.15893 4.91e-4,-1.36011 9.81e-4,-2.72047 -0.02637,-4.08035 0,0 3.776256,-1.9241 3.776256,-1.9241 z"
       inkscape:connector-curvature="0" />
    <path
       style="fill:#ffffff"
       id="path3077"
       d="m 72.003515,632.71183 c 0.472009,1.00407 0.916252,2.0173 1.688995,2.82902 0.357286,0.4072 0.828107,0.62855 1.305624,0.85652 0,0 -3.518345,2.31168 -3.518345,2.31168 l 0,0 c -0.504901,-0.27133 -1.005275,-0.54302 -1.390007,-0.98171 -0.758698,-0.85475 -1.232556,-1.87362 -1.751533,-2.88223 0,0 3.665266,-2.13328 3.665266,-2.13328 z"
       inkscape:connector-curvature="0" />
    <path
       style="fill:#ffffff"
       id="path3079"
       d="m 91.270603,652.60559 c -0.243537,1.02712 -0.376312,2.07614 -0.462315,3.12691 -0.04757,0.75827 -0.146066,1.52209 0.139817,2.2428 0.403666,0.52739 0.991218,0.69424 1.616173,0.79518 0.711148,0.0613 1.415551,0.0697 2.122028,0.17638 0.806687,0.10099 1.607968,0.20568 2.404976,0.0109 1.435033,-0.68832 0.939012,-0.45893 -3.062415,1.75127 -0.07848,0.0434 0.153311,-0.0954 0.218207,-0.15726 0.222987,-0.21255 0.285896,-0.48479 0.358883,-0.77085 0.117037,-0.67897 0.09457,-1.37163 0.09406,-2.05787 -0.0076,-0.71985 -0.01001,-1.43972 -0.01365,-2.1596 0.008,-0.71338 0.05355,-1.44894 -0.390626,-2.0457 -0.511951,-0.44103 -1.218887,-0.47868 -1.85921,-0.5936 -0.818908,-0.13153 -1.62721,-0.20321 -2.440796,-0.0258 -1.286412,0.63046 -3.607538,1.86079 2.686705,-1.55486 0.09616,-0.0522 -0.169867,0.13949 -0.241933,0.22182 -0.172254,0.19677 -0.211304,0.32182 -0.320455,0.55416 -0.214784,0.62627 -0.284588,1.29902 -0.151629,1.9481 0.344712,0.79516 0.934476,1.49368 1.604713,2.03616 0.268235,0.0681 0.361425,0.13415 0.632908,0.0479 0.08818,-0.028 0.322572,-0.18144 0.241752,-0.1364 -7.035951,3.92154 -3.83299,2.68792 -3.112099,1.54835 0.148742,-0.44795 0.367079,-1.1509 -0.180587,-1.38976 -0.270435,-0.007 -0.479832,0.13274 -0.704787,0.26214 1.125162,-0.63058 2.237304,-1.28497 3.375489,-1.89173 0.09401,-0.0501 -0.164093,0.13722 -0.234415,0.21724 -0.06931,0.0789 -0.121498,0.17126 -0.182247,0.25689 -0.29369,0.58888 -0.466034,1.24052 -0.19752,1.86296 0.50295,0.62383 1.0516,1.18223 1.898472,1.16409 1.185915,-1.17322 -0.21477,0.25094 -3.211366,1.69027 -0.09478,0.0455 0.08441,-0.19697 0.09156,-0.30188 0.01096,-0.16084 -0.01588,-0.32246 -0.03815,-0.48213 -0.06404,-0.45905 -0.128611,-0.62619 -0.255426,-1.06896 -0.312861,-0.89729 -0.578077,-1.81592 -1.059964,-2.63998 -1.539451,-2.19017 -0.571506,-1.37699 3.146243,-3.2165 0.330892,0.51959 0.341718,1.1525 0.375665,1.74913 0.06183,0.72639 -0.02067,1.43506 -0.207727,2.13598 -0.734413,2.36848 -2.137684,2.32375 -4.723248,3.83859 -0.698329,0.16811 -1.41892,0.15514 -2.131875,0.15694 -1.006707,-0.15965 -1.678555,-0.56796 -2.250183,-1.4033 -0.427004,-0.72643 -0.410919,-1.4773 -0.09039,-2.23304 0.277644,-0.47441 0.660545,-0.89428 1.137634,-1.17572 3.459868,-2.04101 2.686518,-1.62947 4.381054,-2.51513 0.266481,-0.13826 0.554272,-0.23068 0.8227,-0.36453 0.127344,-0.0635 0.494791,-0.28137 0.371316,-0.21063 -5.873911,3.36503 -3.775513,2.40142 -2.701141,1.41331 0.465639,-0.50558 0.677793,-1.12728 0.713705,-1.80289 -0.08663,-0.90946 -0.806697,-0.45155 -1.324286,-0.18596 5.938619,-3.39718 3.52715,-2.23825 2.44645,-1.14867 -0.388846,0.39205 -0.700547,0.8195 -1.009931,1.27434 -0.446763,0.74375 -0.86604,1.50993 -1.167009,2.32515 -0.217287,0.69303 -0.277056,1.41024 -0.164902,2.12545 0.241725,0.969 0.686168,1.18751 1.491207,1.62559 0.930101,0.46489 1.770243,0.39874 2.759572,0.26358 0.342554,-0.0943 0.401763,-0.0915 0.716343,-0.25223 0.109626,-0.056 0.425065,-0.24859 0.317929,-0.18795 -5.480072,3.10192 -3.972803,2.48447 -2.792601,1.44094 0.649086,-0.53881 1.09949,-1.22293 1.508229,-1.94977 0.531422,-0.88242 0.766545,-1.86621 0.907091,-2.87428 0.108937,-0.802 0.114925,-1.60053 -0.04394,-2.39404 -0.227247,-0.72764 -0.863783,-1.25045 -1.378792,-1.78931 -0.351245,-0.30154 -0.873441,-0.84544 -1.401056,-0.62206 -0.09071,0.0384 -0.161862,0.1123 -0.242792,0.16844 1.142726,-0.64409 2.285989,-1.28724 3.428176,-1.93229 0.05152,-0.0291 -0.144614,0.0149 -0.162548,0.0713 -0.004,0.0127 0.02659,-0.004 0.03972,-0.002 0.04346,0.006 0.08609,0.017 0.129132,0.0255 0.07363,0.009 0.147253,0.0178 0.22088,0.0267 0.806386,0.33824 1.654173,0.55143 2.490112,0.79916 0.858677,0.27177 1.614845,0.71873 2.172558,1.42826 0.440973,0.64337 0.542791,1.39185 0.599957,2.1494 0.05139,0.6735 0.06085,1.32774 -0.179893,1.96524 -0.197951,0.35699 -0.471331,0.70917 -0.831096,0.9195 -3.524745,2.06061 -2.58219,1.59949 -4.178408,2.36652 -0.09189,0.0535 -0.36795,0.21349 -0.275687,0.16059 1.114266,-0.63879 2.226016,-1.28197 3.341698,-1.91829 0.09679,-0.0552 -0.188165,0.11953 -0.284869,0.17487 -1.221469,0.69903 -2.958921,1.84395 -4.500831,2.51064 -0.111356,0.0305 -0.222713,0.061 -0.334069,0.0914 0,0 3.344963,-2.60305 3.344963,-2.60305 l 0,0 c 0.102919,-0.0429 0.205838,-0.0858 0.308757,-0.12867 0.190666,-0.0954 0.754731,-0.39646 0.57086,-0.28852 -7.247296,4.25428 -1.011888,0.51885 1.144676,-0.64653 1.444911,-0.72047 0.277917,-0.14612 -3.088919,1.82632 -0.08677,0.0508 0.179134,-0.0922 0.263474,-0.14699 0.02526,-0.0164 0.435257,-0.32649 0.464565,-0.35422 0.06893,-0.0652 0.124593,-0.14318 0.18689,-0.21477 0.361148,-0.53886 0.316579,-1.13994 0.285608,-1.76678 -0.03469,-0.67101 -0.08476,-1.34841 -0.470374,-1.92395 -0.523305,-0.63116 -1.241372,-0.99093 -2.022251,-1.2184 -0.841042,-0.23965 -1.673506,-0.50372 -2.506379,-0.76942 -2.58466,-0.91666 2.575597,-3.71058 3.185936,-3.21442 0.851838,-0.11261 1.322168,0.30008 1.90919,0.86681 0.571787,0.59888 1.248403,1.17528 1.499639,1.98801 0.192681,0.83704 0.208011,1.67629 0.09988,2.52914 -0.132191,1.04281 -0.318865,2.08655 -0.843558,3.01403 -0.21177,0.40659 -0.418241,0.86236 -0.678002,1.24045 -0.21153,0.3079 -0.530718,0.54347 -0.757501,0.83938 -0.181275,0.16031 -0.322412,0.37093 -0.528593,0.49761 -1.52088,0.93446 -3.14934,2.32127 -5.025322,2.62063 -1.017457,0.0926 -1.984855,0.0148 -2.90601,-0.47717 -0.8747,-0.47913 -1.409436,-0.94539 -1.685474,-1.94817 -0.158682,-0.77794 -0.13156,-1.5418 0.06241,-2.31517 0.272621,-0.85936 0.711118,-1.6448 1.143435,-2.43284 1.592795,-2.46924 2.617342,-2.78172 5.744843,-4.42968 0.892771,-0.27313 1.594865,-0.16441 1.776979,0.87897 0.02668,0.75189 -0.150291,1.46627 -0.585267,2.09099 -1.406703,1.74805 -3.731616,2.42747 -5.68694,3.4436 -1.552346,0.86458 0.03067,-0.0141 2.848291,-1.66134 0.122931,-0.0719 -0.253906,0.12967 -0.375053,0.2045 -0.32984,0.20375 -0.594993,0.46171 -0.835299,0.76421 -0.398,0.57963 -0.482656,1.19158 -0.126867,1.82349 0.47739,0.69651 1.169777,1.03505 2.018618,1.05812 0.681512,-0.0152 1.398281,-0.009 2.016253,-0.33442 -1.121843,0.66157 -2.241969,1.32605 -3.365526,1.9847 -0.08593,0.0504 0.174525,-0.0978 0.252505,-0.1598 0.372481,-0.29603 0.55919,-0.73732 0.704741,-1.17623 0.197617,-0.66019 0.347094,-1.31546 0.267823,-2.012 -0.02002,-0.48078 0.0013,-1.02191 -0.23514,-1.45413 1.211341,-0.71119 2.438804,-1.3956 3.634024,-2.13355 0.031,-0.0191 -0.07626,-0.0802 -0.09706,-0.0503 -0.02804,0.0403 0.01339,0.0983 0.032,0.14379 0.03511,0.0858 0.07994,0.16753 0.127928,0.24681 0.02606,0.043 0.43278,0.63782 0.446081,0.65731 0.489597,0.85838 0.7772,1.80466 1.091902,2.73742 0.164112,0.54866 0.330284,1.1128 0.389281,1.68541 0.01683,0.16333 0.140098,0.39225 0.01004,0.49248 -3.131072,2.41309 -2.355311,2.28844 -4.135227,2.45206 -0.886984,-0.20654 -1.610583,-0.79353 -2.129939,-1.53368 -0.06068,-0.12907 -0.138149,-0.2515 -0.182025,-0.3872 -0.18953,-0.58618 0.03009,-1.26979 0.194738,-1.8333 0.826113,-1.74289 1.794146,-1.54276 4.252638,-2.92369 0.294505,-0.16542 0.66974,-0.0618 0.946757,0.0675 0.64486,0.54597 0.623168,1.12156 0.454671,1.9017 -0.486388,1.79289 -1.880633,1.62513 -4.108403,2.81458 -0.141877,0.0758 -0.576003,-0.0158 -0.691936,-0.0584 -0.141164,-0.0519 -0.267611,-0.13732 -0.401416,-0.20598 -0.707871,-0.63987 -1.357033,-1.38381 -1.751683,-2.26031 -0.184393,-0.71873 -0.137549,-1.45608 0.03732,-2.1759 0.686769,-2.1174 3.042644,-2.97435 5.098659,-3.54174 0.848806,-0.0955 1.691151,-0.009 2.530565,0.14161 0.751378,0.14557 1.508341,0.25432 2.040871,0.86417 0.495262,0.72525 0.544657,1.41616 0.515633,2.27332 8.18e-4,0.71975 0.0067,1.43947 0.012,2.15919 0.0077,0.71078 0.02105,1.42482 -0.04982,2.1329 -0.05134,0.32967 -0.0941,0.6931 -0.253663,0.99325 -0.773691,1.45534 -2.837522,2.17909 -4.456132,2.57862 -0.832145,0.0922 -1.660461,-0.008 -2.488066,-0.11292 -0.710838,-0.0889 -1.431095,-0.0598 -2.136209,-0.19879 -0.742526,-0.17896 -1.405069,-0.48869 -1.839827,-1.14856 -0.321424,-0.78598 -0.299017,-1.59034 -0.213846,-2.42572 0.08527,-1.06313 0.228027,-2.11858 0.415258,-3.16875 0,0 3.820765,-1.84269 3.820765,-1.84269 z"
       inkscape:connector-curvature="0" />
    <path
       style="fill:#241c1c"
       id="path3026"
       d="m 29.752832,24.483144 c -0.002,0.09657 -0.0039,0.19314 -0.0059,0.28971 0,0 -2.351101,1.197946 -2.351101,1.197946 l 0,0 c -0.002,-0.09458 -0.0039,-0.189164 -0.0059,-0.283746 0,0 2.362807,-1.20391 2.362807,-1.20391 z"
       inkscape:connector-curvature="0"
       transform="translate(40,605.50507)" />
    <path
       style="fill:#241c1c"
       id="path3028"
       d="m 19.410243,21.970146 c 0.03716,0.436801 0.0693,0.873742 0.118656,1.309337 0,0 -2.327693,1.221749 -2.327693,1.221749 l 0,0 c -0.05624,-0.432989 -0.08345,-0.868195 -0.140157,-1.30118 0,0 2.349194,-1.229906 2.349194,-1.229906 z"
       inkscape:connector-curvature="0"
       transform="translate(40,605.50507)" />
    <path
       style="fill:#241c1c"
       id="path3030"
       d="m 57.887554,46.687444 c -0.473781,0.751739 -0.947734,1.503673 -1.45687,2.232176 0,0 -2.401402,1.041756 -2.401402,1.041756 l 0,0 c 0.515012,-0.708462 0.979133,-1.449258 1.440991,-2.192907 0,0 2.417281,-1.081025 2.417281,-1.081025 z"
       inkscape:connector-curvature="0"
       transform="translate(40,605.50507)" />
  </g>
</svg>
